<?xml version="1.0" standalone="no"?>
<!DOCTYPE svg PUBLIC "-//W3C//DTD SVG 20010904//EN"
 "http://www.w3.org/TR/2001/REC-SVG-20010904/DTD/svg10.dtd">
<svg version="1.0" xmlns="http://www.w3.org/2000/svg"
 width="395.000000pt" height="334.000000pt" viewBox="0 0 395.000000 334.000000"
 preserveAspectRatio="xMidYMid meet">

<g transform="translate(0.000000,334.000000) scale(0.100000,-0.100000)"
fill="#000000" stroke="none">
<path d="M1508 2524 c-15 -8 -46 -42 -69 -75 -54 -80 -89 -101 -154 -95 -156
17 -175 18 -209 6 -57 -18 -100 -67 -130 -146 -37 -99 -70 -127 -176 -154
-100 -25 -172 -68 -194 -114 -10 -22 -16 -61 -16 -110 0 -86 -4 -92 -93 -153
-82 -57 -88 -74 -85 -253 3 -146 2 -157 -19 -190 -54 -83 -66 -120 -60 -188 5
-69 26 -108 68 -129 34 -18 3047 -18 3099 0 26 9 41 23 58 57 39 78 23 179
-45 273 -42 59 -43 85 -9 157 52 110 24 199 -82 263 -98 60 -105 72 -112 187
-9 142 -36 173 -187 212 -116 30 -129 38 -148 105 -34 117 -118 163 -295 163
-133 0 -173 17 -240 105 -26 33 -60 67 -76 75 -49 25 -120 18 -204 -21 -68
-31 -85 -34 -187 -37 l-112 -4 -90 41 c-100 45 -181 54 -233 25z m206 -111
c149 -67 289 -67 435 -3 114 50 131 46 215 -43 97 -104 111 -110 281 -117 164
-6 185 -15 210 -88 43 -121 65 -143 165 -163 157 -31 172 -45 178 -167 6 -118
23 -148 117 -212 108 -73 116 -99 65 -200 -41 -81 -39 -113 11 -191 53 -81 69
-119 69 -163 0 -53 -20 -66 -100 -66 l-69 0 -6 48 c-38 302 -140 523 -340 731
-216 226 -476 361 -790 411 -106 17 -345 14 -461 -5 -431 -73 -796 -333 -980
-698 -60 -118 -100 -243 -114 -352 -20 -150 -8 -135 -104 -135 -61 0 -87 4
-96 15 -24 29 -15 80 31 170 47 94 51 120 39 307 -5 78 1 87 93 150 72 49 92
88 84 169 -6 64 10 110 45 133 13 8 57 22 98 32 135 30 185 69 227 178 14 39
40 84 55 100 28 28 31 28 96 21 37 -5 99 -9 137 -9 61 -1 75 3 112 27 22 16
60 55 83 88 63 90 78 92 214 32z m421 -318 c474 -71 858 -376 1000 -796 28
-81 55 -213 55 -266 l0 -36 -1256 4 -1256 4 6 62 c11 102 51 242 98 343 231
490 785 770 1353 685z"/>
<path d="M1986 1954 c-19 -19 -20 -35 -3 -58 10 -13 37 -19 114 -27 191 -18
375 -90 517 -204 38 -30 72 -55 75 -55 17 0 51 33 51 50 0 19 -71 84 -150 137
-110 74 -261 131 -414 158 -114 19 -170 19 -190 -1z"/>
<path d="M2752 1588 c-19 -19 -14 -45 19 -91 40 -55 54 -62 85 -43 32 22 30
42 -11 99 -36 48 -68 60 -93 35z"/>
</g>
</svg>
